<svg version="1.2" xmlns="http://www.w3.org/2000/svg" viewBox="0 0 392 398" width="64" height="64"><style>.a{fill:#7952a3}.b{opacity:1;fill:#f8f9ef}</style><path class="a" d="m52.2 0.8c-1.3 0.3-5.3 1.4-9 2.5-3.7 1.1-9 3.4-11.7 5-2.8 1.6-7.2 4.8-9.9 7.1-2.7 2.2-6.5 6.4-8.5 9.1-1.9 2.8-4.8 7.5-6.2 10.5-1.5 3-3.5 8.2-4.5 11.5-1.7 5.7-1.8 14-2.2 145.5-0.2 88.8 0.1 143 0.7 149 0.6 5.2 2 12.2 3.2 15.5 1.3 3.3 4 8.7 6 12 2 3.3 6.8 8.9 10.6 12.5 3.9 3.8 9.5 7.9 13.3 9.8 3.6 1.8 10.1 4.1 14.5 5.2 7.9 2 10.6 2 150.5 1.8l142.5-0.3c10.1-3.4 15.9-6.1 19.4-8.2 3.5-2.1 8.7-6.1 11.5-8.8 2.8-2.8 6.9-7.7 9-11 2.2-3.3 5.4-9.8 7-14.5l3.1-8.5c0-267.6-0.2-294-1.4-298.5-0.7-3-3.1-9.2-5.2-13.8-3-6.3-5.6-9.9-11.2-15.5-4.1-4.2-10-9-13.7-11-3.6-2-10.1-4.5-14.5-5.7-7.9-2-9.9-2-149.5-1.9-77.8 0.1-142.5 0.4-143.8 0.7z"/><path fill-rule="evenodd" class="b" d="m248.5 9.8c68.5 0.3 85 0.6 89.3 1.8 3.2 0.9 5.1 1.9 4.9 2.6-0.3 0.8-1.5 1.1-3.3 0.9-1.6-0.2-66.1-0.3-143.4-0.1-120.8 0.2-141.1 0.5-145 1.7-2.5 0.8-6.7 2.6-9.5 4-2.7 1.4-6.7 3.8-8.7 5.4-2.1 1.6-4 2.9-4.3 2.9-0.3 0-0.5-0.7-0.5-1.5 0-0.8 1.9-3 4.3-4.8 2.3-1.9 5.8-4.3 7.7-5.5 1.9-1.1 6-3.1 9-4.4 5.5-2.3 5.8-2.3 60.5-2.9 30.3-0.3 92.8-0.4 139-0.1zm-42.5 26.3c0.8-0.1 12.5 4 26 8.9 13.5 5 24.6 9 24.8 9 0.1 0 0.2 7.8 0.1 34.5l4.6 1.7c2.5 1 4.8 2.4 5.1 3 0.3 0.7 0 2.4-0.8 3.8-1 2-1.4 19-2.3 169l-5.5-3.8c-3-2-15.1-10.5-26.9-18.7-11.8-8.3-21.6-15.4-21.8-16-0.2-0.6-0.2-34.1 0.2-148.3l19 6.4c10.5 3.5 19.6 6.4 20.3 6.4 0.6 0 1.2-1.1 1.2-2.5 0-1.5-0.7-2.7-1.7-3.1-1-0.3-10.9-3.7-42.3-14.4l-32.3 10.8c-31.4 10.5-32.2 10.8-32.5 13.5-0.1 1.6 0.3 2.7 1 2.7 0.7 0 14-4.3 29.6-9.5 15.5-5.2 28.9-9.5 29.7-9.5 1.3 0 1.5 8.2 1.4 67.8 0 37.2-0.3 69.4-1.4 75.2l-13.4-9.2c-7.4-5.1-15.7-10.9-23.6-16.3l-0.6-69-13.9-9.5-10.5 6.5c-5.8 3.6-10.7 6.5-11 6.5-0.3 0-0.6-6.2-1-27.5l-2.7-0.2c-2-0.2-2.8-0.8-2.8-2.3 0-1.5 1.4-2.5 12.5-6.6l-0.7-33.9 7.4-2.7c4-1.6 19.9-7.3 35.3-12.7 15.4-5.5 28.7-10 29.5-10zm-53.2 91.9c0.4 0.1 1.7 1 3 2 2.2 2 2.2 2.1 2.2 32.5 0 16.8-0.3 30.5-0.7 30.5-0.5 0-1.8-1-3.1-2.3-2.2-2.2-2.3-2.3-2.2-32.5 0-16.6 0.3-30.2 0.8-30.2zm-8 1.1c0.9-0.1 1.2 6.1 1.2 55.9l-11.5-7.8c-6.3-4.2-11.8-7.3-12.3-6.9-0.4 0.5-0.9 23.2-1.7 100l-4 1.4c-2.2 0.8-4.6 1.9-5.3 2.6-0.7 0.7-1.3 1.8-1.2 2.5 0 0.6 2.9 3 6.5 5.2 3.6 2.2 6.5 4.2 6.5 4.5 0 0.3-3.1 3.9-7 8-3.9 4.1-7 8.1-7 8.8 0 0.6 2.9 4 6.5 7.4 3.6 3.5 7.3 6.3 8.3 6.3 0.9 0.1 4.4-3 7.6-6.7 3.3-3.7 6.4-7.4 7-8.1 0.9-1 2.3 0.4 6.1 5.8 3 4.2 5.7 7 6.8 7 1 0 2.3-1.4 3.1-3.3 0.7-1.7 3.1-10.1 9.1-33.7h8.3c5.1 0 9.4-0.6 11.5-1.5 1.7-0.8 4-2.9 5-4.7 1.6-2.8 1.8-5.1 1.2-27l-6.5-5.8h-17.7c-15.4 0-18.1 0.2-20.2 1.7-1.4 1-3.1 3.3-3.8 5.1-0.7 1.7-1.3 6.2-1.3 16.7l-5.2 2c-2.9 1.1-5.6 2.1-6 2.3-0.4 0.1-0.8-19.2-0.8-42.8 0-23.6 0.2-43 0.5-43 0.3 0 5.6 3.5 11.8 7.8 6.3 4.2 18.2 12.4 26.6 18.2 8.3 5.8 19.8 13.7 35.6 24.7l0.5 78.3h6v-36.5c0-20.1 0.2-36.5 0.5-36.5 0.3 0 4.2 2.5 8.8 5.6 4.5 3.2 16.6 11.5 45.7 31.4v12c0 9.7 0.3 12.1 1.5 12.8 0.9 0.4 2.3 0 3.5-1.3 1.9-1.9 2.1-3.2 2-19.2 0-13.2 0.3-17.3 1.2-17.3 0.7 0 2.5-1.3 6.8-5.5v-62.5h-8v-13l3.7 2.2c2.1 1.3 7.8 4.8 21.8 13.6l0.3 31.8c0.2 23.2 0.6 32.3 1.5 33.2 0.7 0.7 2 1.3 2.9 1.2 1.7 0 1.8 1.5 1.8 18.8 0 10.3 0.3 24.4 1.5 44.2h39.5v6l-126 0.2c-69.3 0.2-135.8 0.3-169.5 0.3l-0.5-6.5 42.5-0.5 0.5-57.5h6v-108l8.5-5.3c4.7-2.8 15.2-9.5 23.3-14.9 8.1-5.3 15.3-9.7 15.9-9.7zm20.9 114.9c13.1 0 14.6 0.2 16.4 2 1.7 1.7 2 3.3 2 11.2 0 6.6-0.4 9.9-1.5 11.5-1.3 2-2.3 2.3-9 2.3-5.3 0-7.5-0.4-7.5-1.3 0-0.6 0.7-4.1 1.6-7.7 0.9-3.6 1.3-7.1 1-7.8-0.3-0.6-1.6-1.2-2.9-1.2-1.2 0.1-5.8 1.6-10.2 3.4-4.4 1.9-8.4 3.1-8.9 2.7-0.5-0.3-0.6-3.1-0.3-6.1 0.4-4 1.2-6 2.8-7.3 1.8-1.4 4.3-1.7 16.5-1.7zm-4.7 17.6c0.3 0.2-0.2 1.2-1.1 2.1-1 1-1.5 2.7-1.2 3.8 0.3 1.1-0.2 3.8-0.9 6-1.3 3.4-1.6 3.7-2.2 2-0.4-1.1-0.9-2.6-1.1-3.3-0.2-0.6-0.8-1.1-1.3-1-0.5 0.2-5 4.8-10.1 10.3-5 5.5-9.8 11-10.6 12.2q-1.4 2.3-0.4 3.5 0.9 1.3-0.5 3.5c-1 1.6-2.5 2.3-4.8 2.3-1.7 0-4 0.8-5 1.8-1.7 1.6-1.9 1.6-3.5 0-1.6-1.7-1.5-2 1.8-5.5 1.9-2.1 5.5-5.9 8-8.5 3.1-3.3 4.3-5.2 3.7-6.3-0.4-0.8-3-2.7-5.7-4.3-2.8-1.5-5.1-2.9-5.2-3.2-0.1-0.3 5.6-2.8 12.7-5.5 7.1-2.8 16-6.2 19.9-7.6 3.8-1.5 7.2-2.5 7.5-2.3z"/></svg>